<svg viewBox="0 0 153 42" xmlns="http://www.w3.org/2000/svg" data-logo="logo">
        <g transform="translate(0, 1) rotate(0)" id="logogram" style="opacity: 1;"><path fill="white" d="M20.593 0.499969L46 25.8766V39.5H34.1434V30.774L15.69 12.3424H11.8566V39.5H0V0.499969H20.593ZM34.1434 14.0342V0.499969H46V14.0342H34.1434Z"></path></g>
        <g transform="translate(52, 8)" id="logotype" style="opacity: 1;"><path d="M13.64 26L8.31 26L8.31 0.54L14.12 0.54L22.17 13.42Q22.78 14.41 23.41 15.58Q24.05 16.74 24.70 18.16Q25.36 19.57 26.01 21.35L26.01 21.35L25.48 21.35Q25.36 19.93 25.27 18.33Q25.17 16.72 25.11 15.25Q25.04 13.78 25.04 12.76L25.04 12.76L25.04 0.54L30.37 0.54L30.37 26L24.54 26L17.23 14.31Q16.42 12.99 15.74 11.76Q15.06 10.52 14.31 9.01Q13.57 7.51 12.55 5.44L12.55 5.44L13.21 5.44Q13.31 7.29 13.42 8.98Q13.52 10.67 13.58 12.05Q13.64 13.42 13.64 14.29L13.64 14.29L13.64 26ZM41.22 26.38L41.22 26.38Q38.30 26.38 36.18 25.18Q34.06 23.98 32.92 21.78Q31.79 19.57 31.79 16.55L31.79 16.55Q31.79 13.59 32.91 11.37Q34.04 9.15 36.11 7.90Q38.18 6.65 40.96 6.65L40.96 6.65Q42.84 6.65 44.47 7.25Q46.09 7.85 47.32 9.06Q48.55 10.26 49.24 12.07Q49.94 13.88 49.94 16.34L49.94 16.34L49.94 17.78L33.89 17.78L33.89 14.57L47.42 14.57L45.03 15.42Q45.03 13.93 44.58 12.83Q44.13 11.73 43.23 11.12Q42.33 10.52 41.00 10.52L41.00 10.52Q39.68 10.52 38.75 11.13Q37.82 11.75 37.34 12.80Q36.86 13.85 36.86 15.20L36.86 15.20L36.86 17.47Q36.86 19.13 37.42 20.26Q37.97 21.39 38.97 21.95Q39.97 22.51 41.31 22.51L41.31 22.51Q42.21 22.51 42.95 22.26Q43.68 22.00 44.20 21.50Q44.72 20.99 45.00 20.26L45.00 20.26L49.65 21.13Q49.18 22.70 48.04 23.89Q46.89 25.08 45.18 25.73Q43.46 26.38 41.22 26.38ZM57.74 26.24L57.74 26.24Q55.76 26.24 54.27 25.38Q52.79 24.51 51.98 22.90Q51.16 21.28 51.16 19.04L51.16 19.04L51.16 6.89L56.29 6.89L56.29 18.16Q56.29 19.93 57.21 20.94Q58.14 21.95 59.74 21.95L59.74 21.95Q60.84 21.95 61.67 21.48Q62.51 21.01 62.98 20.11Q63.45 19.22 63.45 17.95L63.45 17.95L63.45 6.89L68.58 6.89L68.58 26L63.74 26L63.67 21.23L63.96 21.23Q63.21 23.64 61.67 24.94Q60.12 26.24 57.74 26.24ZM75.09 26L69.33 26L78.03 0.54L84.86 0.54L93.78 26L87.99 26L83.91 13.71Q83.17 11.34 82.41 8.51Q81.65 5.68 80.81 2.33L80.81 2.33L81.94 2.33Q81.14 5.70 80.43 8.54Q79.72 11.39 79.02 13.71L79.02 13.71L75.09 26ZM88.35 20.09L74.76 20.09L74.76 16.00L88.35 16.00L88.35 20.09ZM94.65 0.54L99.87 0.54L99.87 26L94.65 26L94.65 0.54Z" fill="#ffffff"></path></g>
        
      </svg>